<svg
  width="1440"
  height="180"
  viewBox="0 0 1440 180"
  fill="none"
  xmlns="http://www.w3.org/2000/svg"
>
  <g clip-path="url(#clip0_35_535)">
    <path
      d="M1440 180C1405.17 180 1374.96 160.214 1360 131.269C1345.04 160.214 1314.83 180 1280 180C1245.17 180 1214.96 160.214 1200 131.269C1185.04 160.214 1154.83 180 1120 180C1085.17 180 1054.96 160.214 1040 131.269C1025.04 160.214 994.83 180 960 180C925.17 180 894.962 160.214 880 131.269C865.038 160.214 834.83 180 800 180C765.17 180 734.962 160.214 720 131.269C705.038 160.214 674.83 180 640 180C605.17 180 574.962 160.214 560 131.269C545.038 160.214 514.83 180 480 180C445.17 180 414.962 160.214 400 131.269C385.038 160.214 354.83 180 320 180C285.17 180 254.962 160.214 240 131.269C225.038 160.214 194.83 180 160 180C125.17 180 94.9618 160.214 80 131.269C65.0382 160.214 34.8304 180 0 180V0H1440V180Z"
      fill="#EFBD77"
    />
  </g>
  <defs>
    <clipPath id="clip0_35_535">
      <rect width="1440" height="180" fill="white" />
    </clipPath>
  </defs>
  <rect x="0" y="0" width="1440" height="60" fill="#CB9145" />
</svg>
