<svg width="976" height="931" viewBox="0 0 976 931" fill="none" xmlns="http://www.w3.org/2000/svg">
<path d="M142.326 683.852C138.888 704.023 170.312 730.277 112.18 716.297C98.9683 714.045 78.7883 700.32 82.2264 680.15C85.6646 659.979 99.5468 659.851 113.235 624.667C127.172 538.131 145.764 663.682 142.326 683.852Z" fill="#972E2E"/>
<path d="M226.02 884C232.226 903.629 252.282 920.173 279.608 929.545H22.7725C10.1956 929.545 0 919.349 0 906.772C0 894.196 10.1956 884 22.7725 884H226.02Z" fill="#EFBD77"/>
<path d="M444.798 779.09C447.473 774.866 453.341 774.166 456.906 777.672C468.021 788.602 479.009 800.367 489.796 813.031C492.008 815.628 492.296 819.355 490.486 822.247C464.422 863.912 430.249 899.283 395.57 928.216C394.27 929.301 392.658 929.939 390.968 930.025C386.673 930.245 382.35 930.358 378 930.358V930.358C373.653 930.358 370.747 925.981 372.343 921.937C389.45 878.582 412.89 829.473 444.798 779.09ZM381.163 725.781C383.577 722.064 388.582 721.094 392.208 723.644C405.784 733.191 419.382 743.762 432.873 755.466C435.865 758.062 436.441 762.468 434.299 765.801C398.415 821.634 372.792 876.08 354.635 923.317C353.333 926.706 349.931 928.826 346.33 928.371C337.262 927.224 328.346 925.591 319.607 923.5C315.886 922.61 313.401 919.136 313.729 915.324C318.313 862.12 335.536 796.054 381.163 725.781ZM497.965 840.144C501.044 835.534 507.759 835.177 511.099 839.602C518.045 848.804 524.88 858.42 531.584 868.466C533.856 871.871 533.144 876.447 529.895 878.936C506.028 897.22 478.77 911.298 449.227 920.063C441.514 922.352 436.628 912.936 442.322 907.252C462.414 887.193 481.489 864.821 497.965 840.144ZM293.104 676.12C295.26 673.203 299.156 672.131 302.49 673.56C315.533 679.15 328.894 685.543 342.438 692.854C346.267 694.92 347.649 699.692 345.742 703.602C333.628 728.445 327.872 751.988 325.201 770.381C323.562 781.667 323.08 791.049 323.012 797.656C322.991 799.626 323.008 801.351 323.042 802.808C323.066 803.875 322.891 804.942 322.515 805.941C308.831 842.325 301.647 876.436 298.463 906.871C297.92 912.063 292.718 915.492 287.849 913.609C275.178 908.708 263.007 902.805 251.431 895.996C249.821 895.049 248.611 893.562 248.022 891.789C229.892 837.236 229.108 762.731 293.104 676.12ZM200.819 647.998C202.477 645.017 205.89 643.46 209.229 644.155C228.736 648.215 250.538 654.019 273.772 662.301V662.301C277.588 663.66 278.946 668.337 276.59 671.632C226.18 742.139 216.042 805.86 223.663 858.261C224.748 865.721 216.215 871.104 210.617 866.055C201.2 857.561 192.432 848.361 184.397 838.538C183.855 837.876 183.428 837.132 183.13 836.329C164.154 785.102 160.389 720.727 200.819 647.998ZM151.582 577.883C160.434 577.353 173.271 576.936 189.072 577.406C220.695 578.347 264.066 582.838 311.075 597.004C402.689 624.611 508.259 688.954 567.991 836.298C569.093 839.015 568.609 842.157 566.684 844.369C562.797 848.837 558.753 853.166 554.562 857.347C551.06 860.84 545.262 860.103 542.488 856.007C461.366 736.181 361.645 676.635 279.145 647.229C233.581 630.989 193.323 623.956 164.406 620.984C157.429 620.267 151.109 619.786 145.53 619.469C140.423 619.179 136.757 614.334 138.206 609.427C141.23 599.187 144.892 589.221 149.146 579.574C149.577 578.598 150.517 577.946 151.582 577.883V577.883ZM223.032 530.066C255.189 529.245 299.129 531.5 346.367 543.747C439.804 567.972 546.457 631.292 600.681 788.778C601.374 790.793 601.236 793.037 600.258 794.93C596.839 801.548 593.134 807.993 589.159 814.25C585.798 819.539 577.991 818.671 575.428 812.953C512.452 672.479 407.311 609.294 315.691 581.684C267.017 567.016 222.196 562.384 189.548 561.413C183.243 561.225 177.387 561.174 172.04 561.214C165.837 561.259 161.767 554.653 165.022 549.372C167.673 545.071 170.45 540.856 173.35 536.732C174.582 534.98 176.485 533.818 178.607 533.522C180.396 533.273 182.483 533 184.848 532.72C193.883 531.652 206.968 530.476 223.032 530.066ZM130.977 641.662C131.579 637.789 134.989 635.006 138.906 635.165C145.489 635.433 153.516 635.95 162.771 636.901C166.818 637.317 171.1 637.817 175.596 638.414C181.107 639.147 184.061 645.217 181.539 650.17C164.167 684.289 155.846 716.724 153.86 746.939C153.267 755.974 140.463 759.049 137.932 750.355C131.467 728.144 128 704.656 128 680.358C128 667.197 129.017 654.274 130.977 641.662ZM263.977 483.42C295.62 480.249 338.649 479.503 384.424 489.083C430.159 498.654 478.509 518.503 521.092 556.447C562.776 593.59 599.337 648.429 622.37 728.936C622.721 730.165 622.773 731.472 622.506 732.722C621.204 738.83 619.68 744.856 617.941 750.789C615.873 757.845 606.264 757.888 603.401 751.116C544.233 611.17 441.334 551.839 350.383 528.259C301.33 515.541 255.832 513.223 222.624 514.071C218.072 514.187 213.748 514.363 209.674 514.58C202.433 514.966 198.213 506.493 203.403 501.429C206.362 498.541 209.392 495.726 212.491 492.987C213.427 492.159 214.55 491.569 215.765 491.274C215.865 491.25 215.968 491.225 216.073 491.2C218.402 490.64 221.867 489.854 226.331 488.965C235.261 487.186 248.174 485.003 263.977 483.42ZM360.67 709.504C361.975 706.868 365.242 705.945 367.743 707.493V707.493C370.193 709.008 370.89 712.267 369.308 714.674C369.032 715.093 368.758 715.512 368.484 715.931C364.283 722.363 356.173 718.854 359.492 711.925C359.877 711.119 360.27 710.312 360.67 709.504ZM607.009 625.678C609.396 617.973 620.209 617.666 621.97 625.537C625.917 643.179 628 661.526 628 680.358V680.358C628 683.149 624.218 683.761 623.206 681.159C617.553 666.625 611.406 653.023 604.826 640.3C603.804 638.325 603.631 636.018 604.343 633.911C605.272 631.162 606.16 628.417 607.009 625.678ZM556.483 522.78C558.603 517.068 566.015 515.468 569.921 520.142C582.379 535.05 593.133 551.431 601.882 568.986C602.598 570.422 602.849 572.044 602.606 573.63C601.224 582.654 599.446 591.772 597.228 600.958C595.602 607.697 586.704 608.913 582.815 603.175C571.577 586.592 559.494 571.892 546.782 558.879C544.373 556.414 543.746 552.707 545.215 549.589C549.428 540.651 553.171 531.705 556.483 522.78ZM512.091 475.009C514.744 473.274 518.182 473.304 520.783 475.117C529.069 480.892 536.988 487.156 544.5 493.867C546.772 495.897 547.632 499.069 546.714 501.974C543.381 512.52 539.448 523.112 534.847 533.701C532.728 538.58 526.478 539.866 522.363 536.496C509.737 526.155 496.706 517.232 483.46 509.551C478.548 506.703 477.825 499.814 482.294 496.312C484.372 494.683 486.629 492.949 489.06 491.128C495.546 486.265 503.259 480.783 512.091 475.009ZM491.691 458.917C492.764 458.649 493.901 458.788 494.879 459.306V459.306C497.892 460.902 498.039 465.118 495.225 467.043C489.389 471.034 484.123 474.832 479.463 478.325C471.355 484.403 465.066 489.566 460.784 493.229V493.229C458.748 494.971 455.89 495.398 453.437 494.319C448.734 492.25 444.021 490.317 439.308 488.512C434.205 486.558 433.755 479.429 438.748 477.208V477.208C452.841 470.937 470.937 464.084 491.691 458.917ZM434.443 437.084C435.198 437.041 435.956 437.109 436.691 437.286C440.964 438.314 445.194 439.452 449.378 440.696C456.611 442.847 456.401 452.826 449.353 455.52C443.161 457.887 437.438 460.279 432.244 462.59C421.814 467.23 413.48 471.563 407.727 474.754C407.27 475.007 406.83 475.253 406.406 475.491C404.572 476.523 402.413 476.823 400.37 476.316C396.127 475.264 391.901 474.302 387.701 473.423C368.179 469.337 349.169 467.053 331.28 466.004C329.743 465.914 329.341 463.834 330.748 463.208V463.208C350.671 454.343 378.595 444.313 410.717 439.53C418.402 438.386 426.328 437.541 434.443 437.084ZM321.553 436.758C329.426 434.941 331.626 445.305 324.244 448.59V448.59C313.814 453.23 305.48 457.563 299.727 460.754C296.849 462.349 294.614 463.661 293.083 464.584V464.584C292.049 465.207 290.875 465.565 289.669 465.612C279.889 465.987 270.743 466.662 262.382 467.5V467.5C257.87 467.952 255.837 462.139 259.832 459.993C279.038 449.672 299.75 441.789 321.553 436.758Z" fill="#EFBD77"/>
<path d="M863.47 67.0829C881.379 80.5969 889.457 100.556 882.799 113.351L620.065 425.355L620.584 425.747C615.536 436.46 621.134 452.488 634.185 465.991L636.244 481.225C628.405 481.75 618.91 478.803 610.377 472.562L605.557 478.951L538.18 428.111L542.996 421.729L542.353 421.243C533.766 414.764 528.132 406.35 526.37 398.558L541.569 396.362C558.517 405.818 576.084 407.047 585.22 399.062L585.928 399.596L814.401 60.5357C825.117 51.3867 845.966 53.8751 863.47 67.0829Z" fill="url(#paint0_linear_47_671)"/>
<path d="M636.371 481.058L636.37 481.058L636.337 481.033L517.205 622.503C513.656 618.471 509.95 614.554 506.1 610.757L581.747 510.507C583.077 508.743 582.726 506.234 580.962 504.904L573.222 499.063C571.459 497.732 568.95 498.083 567.62 499.846L492.989 598.751C488.854 595.231 484.591 591.834 480.21 588.565L556.718 487.171C558.049 485.408 557.698 482.899 555.935 481.568L548.194 475.727C546.43 474.397 543.922 474.747 542.591 476.511L465.668 578.451C461.085 575.483 456.4 572.644 451.627 569.939L527.411 469.507C528.742 467.743 528.391 465.235 526.627 463.904L518.886 458.064C517.123 456.733 514.615 457.084 513.285 458.848L435.754 561.593C431.477 559.513 427.145 557.535 422.764 555.664C422.173 555.412 421.581 555.164 420.989 554.915L526.152 398.85L526.613 398.238L636.371 481.058Z" fill="#8D8D8D"/>
<path d="M463.5 453C371.921 486.07 370.928 603.741 292.634 628.318C214.34 652.895 130.007 664.644 112.186 607.871C94.364 551.097 196.986 458.88 288.615 415.865C337.5 415.865 517.5 433.5 463.5 453Z" fill="#CC4848"/>
<path d="M295.511 771.012C292.073 791.182 326 810 265 812.5C251.789 810.248 231.973 787.48 235.411 767.309C238.849 747.139 258.812 742.684 272.5 707.5C282 592.5 298.949 750.841 295.511 771.012Z" fill="#CC4848"/>
<path d="M309.719 690.459C313.152 753.39 307.537 804.865 297.176 805.43C286.816 805.996 275.634 755.438 272.2 692.506C265.475 569.231 201.331 700.219 284.742 577.534C419 568 303.556 577.51 309.719 690.459Z" fill="#CC4848"/>
<path d="M251.53 323.058C314.455 320.965 367.223 372.069 369.389 437.203C369.738 447.681 368.753 457.883 366.597 467.636C334.745 468.988 296.533 477.787 257.631 494.124C230.321 505.593 205.902 519.419 185.724 534.181C159.84 513.385 142.729 481.288 141.515 444.782C139.349 379.648 188.604 325.151 251.53 323.058Z" fill="#5A342C"/>
<defs>
<linearGradient id="paint0_linear_47_671" x1="862.926" y1="66.6726" x2="571.325" y2="453.121" gradientUnits="userSpaceOnUse">
<stop stop-color="#8D8D8D"/>
<stop offset="1" stop-color="#787878"/>
</linearGradient>
</defs>
</svg>
